<svg viewBox="0 0 150 150" fill="none" xmlns="http://www.w3.org/2000/svg" style="width: 403px; height: 403px;"><style>
     .apps1-a {animation:apps1-a 4s infinite; transform: translate3d(0, -5px, 0);}
     .apps1-b {animation:apps1-a 4s 300ms infinite; transform: translate3d(0, -5px, 0);}
     .apps1-c {animation:apps1-a 4s 600ms infinite; transform: translate3d(0, -5px, 0);}
     @keyframes apps1-a {
         0%{transform: translate3d(0, -5px, 0);}
         50%{transform: translate3d(0, 4px, 0);}
         100%{transform: translate3d(0, -5px, 0);}
     }
     @media (prefers-reduced-motion: reduce) {
         .apps1-a, .apps1-b, .apps1-c {
             animation: none;
         }
     }
    </style><path class="fillCls3" d="M115.15 149.014H118.484V81.2132H115.15V149.014Z" fill="#000000" stroke-width="2px" style="animation-duration: 4s;"></path><path class="fillCls3" d="M107.34 133.588H110.673V65.7876H107.34V133.588Z" fill="#000000" stroke-width="2px" style="animation-duration: 4s;"></path><path class="fillCls5" d="M124.51 80.0251H29.1973L33.5335 63.7975H120.188L124.51 80.0251Z" fill="#CCCCCC" stroke-width="2px" style="animation-duration: 4s;"></path><path class="fillCls6" d="M124.519 79.981H29.1738V83.0333H124.519V79.981Z" fill="#BBBBBB" stroke-width="2px" style="animation-duration: 4s;"></path><path class="fillCls9" d="M74.0573 59.4699L75.9954 66.9752C76.1194 67.4563 75.7563 67.9256 75.26 67.9256H63.8032C63.3834 67.9256 63.0441 68.2662 63.0441 68.6853C63.0441 69.1053 63.3844 69.4449 63.8032 69.4449H88.0799C88.5763 69.4449 88.9395 68.9766 88.8153 68.4954L86.4001 59.0882L74.0573 59.4699Z" fill="#20457B" stroke-width="2px" style="animation-duration: 4s;"></path><path class="fillCls3" d="M46.4828 59.8491H102.552C103.662 59.8491 104.562 58.9853 104.562 57.9197V23.0155C104.562 21.95 103.662 21.0863 102.552 21.0863H46.4828C45.3726 21.0863 44.4725 21.95 44.4725 23.0155V57.9189C44.4725 58.9853 45.3726 59.8491 46.4828 59.8491Z" fill="#000000" stroke-width="2px" style="animation-duration: 4s;"></path><path class="fillCls15" d="M99.4552 59.7637H48.6534C47.6474 59.7637 46.832 58.8999 46.832 57.8344V22.9292C46.832 21.8637 47.6474 21 48.6534 21H99.4552C100.461 21 101.277 21.8637 101.277 22.9292V57.8334C101.277 58.8991 100.461 59.7637 99.4552 59.7637Z" fill="#6A47FA" stroke-width="2px" style="animation-duration: 4s;"></path><path class="fillCls3" d="M102.38 59.9214H48.9113C47.7617 59.9214 46.8301 58.9891 46.8301 57.8387V56.3432H104.357C104.415 56.3432 104.462 56.3908 104.462 56.4491V57.8395C104.462 58.9891 103.53 59.9214 102.38 59.9214Z" fill="#000000" stroke-width="2px" style="animation-duration: 4s;"></path><path class="fillCls3" d="M46.4366 21.0109H102.534C103.599 21.0109 104.463 21.8417 104.463 22.8662V24.0513H44.5078V22.8662C44.5078 21.8417 45.3706 21.0109 46.4366 21.0109Z" fill="#000000" stroke-width="2px" style="animation-duration: 4s;"></path><path class="fillCls9" d="M111.85 75.3447H105.299C104.303 75.3447 103.494 74.5348 103.494 73.5368V65.2013H113.655V73.5368C113.654 74.5348 112.846 75.3447 111.85 75.3447Z" fill="#20457B" stroke-width="2px" style="animation-duration: 4s;"></path><path class="fillCls3" d="M113.704 65.2156C113.704 66.0506 111.415 66.7279 108.592 66.7279C105.769 66.7279 103.434 66.0506 103.434 65.2156C103.434 64.3806 105.769 63.7033 108.592 63.7033C111.415 63.7033 113.704 64.3806 113.704 65.2156Z" fill="#000000" stroke-width="2px" style="animation-duration: 4s;"></path><path class="fillCls14" d="M112.092 61.5848C112.092 64.2913 111.691 65.7877 108.776 65.7877C105.702 65.7877 105.461 64.2913 105.461 61.5848C105.461 58.8784 106.945 56.6835 108.776 56.6835C110.607 56.6835 112.092 58.8784 112.092 61.5848Z" fill="#586035" stroke-width="2px" style="animation-duration: 4s;"></path><path class="fillCls13" d="M106.317 58.9056C106.317 58.9056 105.569 57.7274 105.462 54.3794C105.354 51.0315 104.633 50.5224 103.858 50.6298C103.083 50.7372 102.441 52.3436 102.763 54.9149C103.083 57.4862 105.008 60.512 105.596 60.8328C106.184 61.1562 106.317 58.9056 106.317 58.9056Z" fill="#2E3716" stroke-width="2px" style="animation-duration: 4s;"></path><path class="fillCls14" d="M103.368 51.6129C103.368 51.6129 99.2326 49.1317 100.221 46.8811C100.999 45.1078 102.659 45.9348 103.162 47.4974C103.782 49.4286 103.723 51.2736 103.723 51.2736L103.368 51.6129Z" fill="#586035" stroke-width="2px" style="animation-duration: 4s;"></path><path class="fillCls14" d="M109.899 57.4855C109.899 57.4855 109.205 53.8433 109.846 51.0042C110.488 48.1652 112.439 44.7643 114.632 45.2732C116.824 45.7822 114.551 49.9068 113.482 52.1561C112.697 53.8048 111.454 56.1892 110.846 57.3437C110.665 57.687 110.21 57.7678 109.923 57.5054L109.899 57.4855Z" fill="#586035" stroke-width="2px" style="animation-duration: 4s;"></path><path class="fillCls13" d="M110.971 58.8694C110.971 58.8694 112.433 57.8249 113.136 56.6997C113.647 55.8805 114.045 55.4989 114.366 55.7082C114.977 56.1098 113.697 57.7971 112.948 58.387C112.467 58.766 111.832 59.0005 111.439 59.1199C111.241 59.1795 111.032 59.0668 110.971 58.8694Z" fill="#2E3716" stroke-width="2px" style="animation-duration: 4s;"></path><path class="fillCls4" d="M81.2637 131.283L81.2825 140.645L89.5742 140.502L89.3854 131.013L81.2637 131.283Z" fill="#F28377" stroke-width="2px" style="animation-duration: 4s;"></path><path class="fillCls8" d="M80.6739 138.653L79.4941 145.254H99.2542C100.401 145.254 101.483 144.723 102.183 143.817L103.076 142.66L92.5233 139.065L91.5712 137.069C91.3943 136.7 90.9743 136.512 90.5828 136.632C90.1805 136.758 89.698 136.965 89.3984 137.295C88.8085 137.944 88.4546 138.768 88.4546 138.768L80.6739 138.653Z" fill="#FFED94" stroke-width="2px" style="animation-duration: 4s;"></path><path class="fillCls3" d="M79.8422 143.355C79.8422 143.355 81.9785 142.554 85.4949 142.687C89.0115 142.82 91.8155 144.068 94.9757 144.246C98.1359 144.424 102.32 143.668 102.32 143.668L101.943 144.149C101.394 144.848 100.554 145.258 99.6647 145.258H79.4941L79.8422 143.355Z" fill="#000000" stroke-width="2px" style="animation-duration: 4s;"></path><path class="fillCls7" d="M93.2536 138.727C93.0248 138.549 92.7063 138.543 92.4538 138.684C91.982 138.948 91.1704 139.435 91.0146 139.746C90.7918 140.191 91.0595 140.547 91.3261 140.592C91.5927 140.637 92.1507 139.928 92.9281 139.523C93.5898 139.181 93.4837 138.907 93.2536 138.727Z" fill="#FFFFFF" stroke-width="2px" style="animation-duration: 4s;"></path><path class="fillCls7" d="M95.2106 139.71C94.9818 139.532 94.6633 139.526 94.4108 139.668C93.939 139.931 93.1274 140.418 92.9717 140.729C92.7488 141.174 93.0166 141.53 93.2832 141.575C93.5497 141.62 94.1077 140.911 94.8851 140.506C95.5468 140.165 95.4407 139.889 95.2106 139.71Z" fill="#FFFFFF" stroke-width="2px" style="animation-duration: 4s;"></path><path class="fillCls7" d="M97.2146 140.287C96.9858 140.109 96.6672 140.104 96.4147 140.245C95.943 140.508 95.1313 140.995 94.9756 141.306C94.7527 141.752 95.0204 142.108 95.2871 142.152C95.5536 142.197 96.1116 141.488 96.889 141.084C97.5508 140.741 97.4435 140.467 97.2146 140.287Z" fill="#FFFFFF" stroke-width="2px" style="animation-duration: 4s;"></path><path class="fillCls4" d="M87.3496 117.876L90.0723 126.833L97.9699 124.301L95.0468 115.271L87.3496 117.876Z" fill="#F28377" stroke-width="2px" style="animation-duration: 4s;"></path><path class="fillCls8" d="M88.916 125.103L89.6958 131.765L108.612 126.056C109.709 125.725 110.592 124.904 111.001 123.832L111.523 122.468L100.381 122.074L98.8933 120.44C98.6173 120.136 98.1608 120.078 97.821 120.308C97.4719 120.544 97.0708 120.881 96.8785 121.283C96.5011 122.075 96.402 122.966 96.402 122.966L88.916 125.103Z" fill="#FFED94" stroke-width="2px" style="animation-duration: 4s;"></path><path class="fillCls3" d="M89.4785 129.844C89.4785 129.844 91.2928 128.459 94.6972 127.572C98.1017 126.685 101.146 127.068 104.223 126.323C107.299 125.58 111.086 123.648 111.086 123.648L110.864 124.217C110.541 125.044 109.855 125.68 109.004 125.936L89.6955 131.764L89.4785 129.844Z" fill="#000000" stroke-width="2px" style="animation-duration: 4s;"></path><path class="fillCls3" d="M101.874 60.0136H48.4054C47.2558 60.0136 46.3242 59.0814 46.3242 57.9309V56.4355H103.851C103.909 56.4355 103.957 56.483 103.957 56.5414V57.9318C103.957 59.0814 103.024 60.0136 101.874 60.0136Z" fill="#000000" stroke-width="2px" style="animation-duration: 4s;"></path><path class="fillCls7" d="M100.982 121.539C100.711 121.435 100.405 121.522 100.203 121.729C99.8279 122.118 99.1921 122.818 99.1319 123.161C99.0469 123.651 99.4056 123.915 99.6745 123.881C99.9435 123.847 100.271 123.006 100.9 122.395C101.435 121.877 101.253 121.645 100.982 121.539Z" fill="#FFFFFF" stroke-width="2px" style="animation-duration: 4s;"></path><path class="fillCls7" d="M103.14 121.913C102.87 121.809 102.563 121.896 102.361 122.103C101.986 122.492 101.35 123.192 101.29 123.535C101.205 124.025 101.564 124.289 101.833 124.255C102.102 124.22 102.43 123.38 103.058 122.769C103.593 122.251 103.412 122.017 103.14 121.913Z" fill="#FFFFFF" stroke-width="2px" style="animation-duration: 4s;"></path><path class="fillCls7" d="M105.224 121.888C104.954 121.784 104.647 121.871 104.445 122.079C104.07 122.467 103.434 123.167 103.374 123.511C103.289 124.002 103.648 124.264 103.917 124.23C104.186 124.196 104.514 123.355 105.142 122.745C105.677 122.226 105.495 121.992 105.224 121.888Z" fill="#FFFFFF" stroke-width="2px" style="animation-duration: 4s;"></path><path class="fillCls13" d="M50.2207 109.931C50.2207 109.931 85.388 93.5948 87.8439 94.8227C90.3 96.0508 91.0018 109.91 90.8261 120.086C90.6503 130.261 90.4757 132.893 90.4757 132.893H80.1244L77.3169 112.717C77.3169 112.717 68.7587 111.565 64.2241 111.239C60.1956 110.948 50.2207 109.931 50.2207 109.931Z" fill="#2E3716" stroke-width="2px" style="animation-duration: 4s;"></path><path class="fillCls12" d="M47.2099 85.4752C47.3172 84.6459 55.0368 91.1373 55.0368 91.1373L80.6868 82.9826C83.4377 82.1085 86.4092 83.4095 87.6372 86.0212C89.3677 89.7017 91.1773 95.3203 92.2897 99.8684C94.2196 107.764 96.0905 115.697 96.0905 115.697L90.9839 117.015L86.9423 101.52C86.6498 100.398 85.4442 99.7806 84.3614 100.198C77.8274 102.722 57.5105 110.434 53.1093 110.434C47.8457 110.434 36.7937 108.68 33.1097 99.3815C29.4257 90.084 31.0041 80.0842 31.0041 80.0842L47.2099 85.4752Z" fill="#2E3716" stroke-width="2px" style="animation-duration: 4s;"></path><path class="fillCls3" d="M41.4102 140.788H44.7437V110.479H41.4102V140.788Z" fill="#000000" stroke-width="2px" style="animation-duration: 4s;"></path><path class="fillCls3" d="M54.1974 145.214C54.1974 145.214 53.5982 141.633 51.4855 141.517C49.3727 141.4 36.4651 141.517 35.2914 141.517C33.4205 141.517 32.7103 145.682 32.7103 145.682L29.8945 145.154C29.8945 145.154 30.5399 141.399 32.0072 139.99C33.4736 138.581 35.762 138.757 38.8716 138.757H52.5211C53.7491 138.757 54.8839 139.409 55.5079 140.467C55.8808 141.1 56.237 141.864 56.4152 142.689C56.8846 144.86 56.7667 145.623 56.7667 145.623L54.1974 145.214Z" fill="#000000" stroke-width="2px" style="animation-duration: 4s;"></path><path class="fillCls6" d="M55.7904 149.013C57.0099 149.013 57.9986 148.024 57.9986 146.805C57.9986 145.586 57.0099 144.597 55.7904 144.597C54.5707 144.597 53.582 145.586 53.582 146.805C53.582 148.024 54.5707 149.013 55.7904 149.013Z" fill="#BBBBBB" stroke-width="2px" style="animation-duration: 4s;"></path><path class="fillCls6" d="M31.2883 149.013C32.5079 149.013 33.4966 148.024 33.4966 146.805C33.4966 145.586 32.5079 144.597 31.2883 144.597C30.0688 144.597 29.0801 145.586 29.0801 146.805C29.0801 148.024 30.0688 149.013 31.2883 149.013Z" fill="#BBBBBB" stroke-width="2px" style="animation-duration: 4s;"></path><path class="fillCls3" d="M46.6281 140.864C46.6281 140.864 47.2934 141.696 47.4586 143.191C47.6249 144.687 47.4256 145.817 47.4256 145.817L44.5672 145.751C44.5672 145.751 44.9648 144.629 44.6688 143.206C44.3632 141.731 43.7109 141.13 43.7109 141.13L46.6281 140.864Z" fill="#000000" stroke-width="2px" style="animation-duration: 4s;"></path><path class="fillCls2" d="M30.0586 112.43H55.8808C58.0112 112.43 59.7383 110.703 59.7383 108.572C59.7383 106.442 58.0112 104.715 55.8808 104.715H30.0586C27.9282 104.715 26.2012 106.442 26.2012 108.572C26.2012 110.703 27.9282 112.43 30.0586 112.43Z" fill="#A73118" stroke-width="2px" style="animation-duration: 4s;"></path><path class="fillCls6" d="M46.0891 149.013C47.3087 149.013 48.2974 148.024 48.2974 146.805C48.2974 145.586 47.3087 144.597 46.0891 144.597C44.8694 144.597 43.8809 145.586 43.8809 146.805C43.8809 148.024 44.8694 149.013 46.0891 149.013Z" fill="#BBBBBB" stroke-width="2px" style="animation-duration: 4s;"></path><path class="fillCls7" d="M79.4277 75.4595C78.1385 74.3754 77.9709 72.4515 79.055 71.1609L81.334 68.4489C82.4181 67.1596 84.3422 66.9921 85.6327 68.0762C86.922 69.1603 87.0895 71.0842 86.0054 72.3748L83.7263 75.0868C82.6422 76.3773 80.7183 76.5436 79.4277 75.4595Z" fill="#FFFFFF" stroke-width="2px" style="animation-duration: 4s;"></path><path class="fillCls4" d="M72.2637 71.3239L78.7021 68.7358C79.6623 68.35 80.7488 68.4409 81.6299 68.9835C83.4773 70.1207 86.4889 72.0529 86.595 72.6345C86.7 73.2078 85.8555 73.2845 85.8555 73.2845C85.8555 73.2845 86.1762 73.4932 85.826 73.9898C85.5617 74.3638 85.078 74.2034 85.078 74.2034C85.078 74.2034 85.2409 74.5915 84.9659 74.9159C84.6438 75.2945 84.1874 75.1093 84.1874 75.1093C84.1874 75.1093 84.5094 75.6166 83.6755 75.9338C83.0396 76.1757 79.0407 73.0567 79.0407 73.0567C79.0407 73.0567 77.7254 73.7481 76.2449 74.5266C74.7657 75.3052 72.7791 75.8903 72.7791 75.8903L72.2637 71.3239Z" fill="#F28377" stroke-width="2px" style="animation-duration: 4s;"></path><path class="fillCls4" d="M45.4776 54.3601L39.9121 53.4258V47.4037H45.4776V54.3601Z" fill="#F28377" stroke-width="2px" style="animation-duration: 4s;"></path><path class="fillCls4" d="M48.209 41.4473L48.4731 42.8582L49.4168 44.4518C49.4723 44.5462 49.4286 44.6677 49.3248 44.703C49.1113 44.7762 48.8035 44.8859 48.8059 44.9025C49.0228 46.0844 49.063 47.0128 48.9698 47.4056C48.7373 48.3931 45.0192 48.9168 43.7994 47.6958C42.5797 46.4761 41.7079 44.4424 42.115 43.1636C42.5218 41.8849 42.9867 40.375 42.9867 40.375L48.209 41.4473Z" fill="#F28377" stroke-width="2px" style="animation-duration: 4s;"></path><path class="fillCls3" d="M47.3452 43.9662C47.5381 43.9662 47.6944 43.8099 47.6944 43.617C47.6944 43.4242 47.5381 43.2678 47.3452 43.2678C47.1525 43.2678 46.9961 43.4242 46.9961 43.617C46.9961 43.8099 47.1525 43.9662 47.3452 43.9662Z" fill="#000000" stroke-width="2px" style="animation-duration: 4s;"></path><path class="fillCls3" d="M48.9152 45.7159C48.9152 45.7159 48.2605 45.6864 47.7946 46.0356C47.39 46.3388 47.0916 46.8967 46.6125 46.9333C45.4318 47.0241 44.4975 46.84 44.0622 46.616C42.9451 46.0403 42.951 44.5586 43.5868 44.377C44.2226 44.1953 44.9492 44.377 44.9492 44.377C44.9492 44.377 45.8211 41.08 45.3669 40.8982C45.302 40.8723 48.5047 42.2183 49.0166 41.3052C50.1704 39.2491 47.8453 38.2606 46.5229 38.1214C40.1682 37.4526 38.8824 38.7407 38.0201 40.7827C37.5506 41.8938 37.4774 42.8506 37.7499 45.4859C38.0225 48.1212 40.0786 49.0885 42.5193 49.2052C43.1692 49.2359 43.1397 50.2351 44.1412 50.7741C45.9319 51.7391 47.9821 51.5056 49.1276 50.8272C50.8451 49.8115 48.9152 45.7159 48.9152 45.7159Z" fill="#000000" stroke-width="2px" style="animation-duration: 4s;"></path><path class="fillCls7" d="M48.8728 46.368L47.7852 46.6075C47.7852 46.6075 47.9691 47.0228 48.4812 47.1312C48.7725 47.1937 49.0215 47.1678 49.1253 47.0699C49.1866 47.011 48.8728 46.368 48.8728 46.368Z" fill="#FFFFFF" stroke-width="2px" style="animation-duration: 4s;"></path><path class="fillCls11" d="M73.0474 69.8884L58.466 74.4855C58.466 74.4855 56.6152 69.5771 54.1309 64.5023C51.1098 58.328 46.1177 55.8319 46.1177 55.8319L46.3807 52.9418L38.8935 51.7599L38.2365 54.256C38.2365 54.256 32.5884 55.5701 30.7493 59.9041C28.9103 64.2392 30.2244 84.2057 30.2244 84.2057L48.6149 86.1758L50.0599 82.7607C50.0599 82.7607 52.6905 86.4234 57.0222 85.3877C60.4926 84.5584 75.8066 76.0615 75.8066 76.0615L73.0474 69.8884Z" fill="#8E191C" stroke-width="2px" style="animation-duration: 4s;"></path><path class="fillCls1" d="M27.3302 112.388H38.8093L46.1616 112.41L46.1395 105.057V79.9572C46.1395 75.9087 42.8577 72.6269 38.8093 72.6269H27.3302C23.2818 72.6269 20 75.9087 20 79.9572V105.057C20 109.106 23.2818 112.388 27.3302 112.388Z" fill="#C2462C" stroke-width="2px" style="animation-duration: 4s;"></path><g class="apps1-b" style="animation-duration: 4s;"><path class="fillCls10" d="M71 29.705H98.4101V16H71V29.705Z" fill="#F3E184" stroke-width="2px"></path><path class="fillCls18" d="M71 16L84.5514 22.8525L98.4101 16H71Z" fill="#DFCC68" stroke-width="2px"></path></g><g class="apps1-a" style="animation-duration: 4s;"><path class="fillCls17" d="M29.54 25H12.9244C12.5189 25 12.1952 25.329 12.1952 25.7305V30.6728C12.1952 31.079 12.5235 31.4034 12.9244 31.4034H13.5C13.9687 31.4034 14.3163 31.8381 14.2153 32.2974L12.3348 40.6445C12.142 40.6159 11.9485 40.5913 11.7451 40.5913C9.67714 40.5913 8 42.2698 8 44.3397C8 46.409 9.67714 48.0875 11.7451 48.0875C13.8138 48.0875 15.4909 46.409 15.4909 44.3397L17.9172 31.9976C17.985 31.6546 18.2841 31.408 18.6371 31.408H24.1849C24.6542 31.408 25.0019 31.8434 24.9002 32.2974L23.0303 40.6591C22.8076 40.6159 22.5809 40.5913 22.3436 40.5913C20.2756 40.5913 18.5985 42.2698 18.5985 44.3397C18.5985 46.409 20.2756 48.0875 22.3436 48.0875C24.4123 48.0875 26.0894 46.409 26.0894 44.3397L28.8341 31.9784C28.9072 31.6447 29.2063 31.4034 29.5493 31.4034C29.9555 31.4034 30.2792 31.0743 30.2792 30.6728V25.7305C30.2699 25.329 29.9409 25 29.54 25Z" fill="#EF95BD" stroke-width="2px"></path></g><g class="apps1-c" style="animation-duration: 4s;"><path class="fillCls16" d="M134.997 24.0005H122.002C118.683 24.0005 116 26.7591 116 30.1548C116 33.5516 118.69 36.3102 122.002 36.3102H124.194L126.352 40.0005L128.886 36.3102H134.997C138.316 36.3102 141 33.5516 141 30.1548C141 26.7591 138.316 24.0005 134.997 24.0005Z" fill="#A9C1FF" stroke-width="2px"></path></g></svg>